<svg width="1440" height="1024" viewBox="0 0 1440 1024" fill="none" xmlns="http://www.w3.org/2000/svg">
<path d="M773 -9H-5.5V1050H1463.5V344.5L1438.5 331C1442.9 339 1269 147.5 980.5 266C980.5 259 738.5 279.5 773 -9Z" fill="url(#paint0_linear)"/>
<path d="M773 -9H-5.5V1050H1463.5V344.5L1438.5 331C1442.9 339 1269 147.5 980.5 266C980.5 259 738.5 279.5 773 -9Z" fill="url(#paint1_linear)"/>
<ellipse cx="207.667" cy="1049.5" rx="260.667" ry="256.5" fill="white"/>
<ellipse cx="468.333" cy="1049.5" rx="260.667" ry="256.5" fill="white"/>
<ellipse cx="729" cy="1049.5" rx="260.667" ry="256.5" fill="white"/>
<ellipse cx="989.667" cy="1049.5" rx="260.667" ry="256.5" fill="white"/>
<ellipse cx="1250.33" cy="1049.5" rx="260.667" ry="256.5" fill="white"/>
<defs>
<linearGradient id="paint0_linear" x1="729" y1="-9" x2="729" y2="1050" gradientUnits="userSpaceOnUse">
<stop stop-color="white"/>
<stop offset="1" stop-color="white" stop-opacity="0"/>
</linearGradient>
<linearGradient id="paint1_linear" x1="1440" y1="1.00006" x2="-5.00004" y2="1024" gradientUnits="userSpaceOnUse">
<stop stop-color="#0074FC"/>
<stop offset="0.9999" stop-color="#00B3FF" stop-opacity="0.317708"/>
<stop offset="1" stop-color="#05CAF5" stop-opacity="0"/>
</linearGradient>
</defs>
</svg>
